<?xml version="1.0" encoding="UTF-8"?>
<!DOCTYPE svg PUBLIC "-//W3C//DTD SVG 1.1//EN" "http://www.w3.org/Graphics/SVG/1.1/DTD/svg11.dtd">
<svg xmlns="http://www.w3.org/2000/svg" xml:space="preserve" width="331.787mm" height="331.787mm"
  version="1.1"
  style="shape-rendering:geometricPrecision; text-rendering:geometricPrecision; image-rendering:optimizeQuality; fill-rule:evenodd; clip-rule:evenodd"
  viewBox="0 0 33178.74 33178.74"
  xmlns:xlink="http://www.w3.org/1999/xlink"
  xmlns:xodm="http://www.corel.com/coreldraw/odm/2003">
 <defs>
  <style type="text/css">
   <![CDATA[
    .fil0 {fill:#e9f7fe}
    .fil1 {fill:#52668b}
   ]]>
  </style>
 </defs>
 <g id="_x0020_1" transform="matrix(1.364 0 0 1.364 -6038.5307 -6038.5307)">
  <g id="_2082130006368">
   <rect class="fil0" x="9800" y="17150" width="9400" height="5900" rx="260" ry="260"/>
   <path class="fil1" d="M15169.84 21040.63c122.58,-28.4 2123.09,-10.08 2305.88,-10.26 183.14,-0.18 342.28,-17.41 497.13,89.04 447.03,307.32 277.25,952.4 -185.66,1034.24 -134.68,23.82 -425.96,11.03 -576.05,10.83l-1733.02 -1.66c-189.7,-1.13 -336.57,19.68 -498.38,-87.63 -420.56,-278.92 -303.31,-920.27 190.1,-1034.56zm-2839.54 -1582.06c-26.72,-87.18 -1191.05,-943.59 -1359.62,-1073.72 -262.27,-202.47 -529.72,-361.06 -466.3,-750.01 56.74,-348.02 391.27,-539.41 725.43,-435.55 173.57,53.95 1162.25,863.34 1401.66,1032.99l688.39 528.64c259.21,210.54 503.53,311.71 508.06,699.17 4.31,369.55 -270.7,500.57 -521.99,698.09 -411.86,323.73 -961.51,764.15 -1371.73,1062.92 -159.99,116.53 -546.98,462.69 -709.52,508.41 -314.87,88.57 -703.77,-101.53 -724.53,-456.14 -22.05,-376.94 205.71,-543.69 481.15,-740.18l682.31 -535.09c133.21,-114.5 584.82,-427.78 666.69,-539.53zm-1238.95 -13521.78c-1370.44,148.2 -2467.26,1439.35 -3129.21,2554.72 -757.55,1276.45 -1266.06,2606.3 -1633.49,4042.11 -407.75,1593.33 -620.62,3377.33 -651.82,5020.13 -31.97,1682.75 210.72,3173.21 1007.81,4667.28 621.72,1165.36 1684.75,2181.53 2797.44,2878.04 2687.93,1682.56 6368.14,1978.46 9456.52,1591.86 1502.68,-188.11 3024.03,-602.13 4357.98,-1330.22 2829.8,-1544.55 4088.13,-3964.33 4204.27,-7144.01 57.8,-1582.46 -182.62,-3600.15 -519.73,-5153.52 -312.41,-1439.57 -819.93,-2859.25 -1517.52,-4157.23 -592.93,-1103.23 -1582.74,-2448.3 -2818.45,-2856.66 -1506.72,-497.92 -2912.27,517 -4043.52,1386.76 -460.76,354.24 -1151.06,1003.52 -1702.4,1128.49 -798.55,181.01 -1372.37,-378.07 -1941.57,-834.29 -1057.54,-847.64 -2430.35,-1948.73 -3866.31,-1793.46z"/>
  </g>
 </g>
</svg>